<?xml version="1.0" encoding="utf-8"?>
<!-- Generator: Adobe Illustrator 16.0.0, SVG Export Plug-In . SVG Version: 6.00 Build 0)  -->
<!DOCTYPE svg PUBLIC "-//W3C//DTD SVG 1.1//EN" "http://www.w3.org/Graphics/SVG/1.1/DTD/svg11.dtd">
<svg version="1.1" id="Layer_1" xmlns="http://www.w3.org/2000/svg" xmlns:xlink="http://www.w3.org/1999/xlink" x="0px" y="0px"
	 width="171.348px" height="27.355px" viewBox="0 0 171.348 27.355" enable-background="new 0 0 171.348 27.355"
	 xml:space="preserve">
<g>
	<path fill="#0079C1" d="M58.263,7.972c0.614,0.507,1.895,1.574,1.895,3.604c0,1.975-1.12,2.911-2.242,3.791
		c-0.348,0.346-0.747,0.721-0.747,1.309s0.399,0.907,0.692,1.148l0.963,0.745c1.175,0.988,2.242,1.896,2.242,3.74
		c0,2.51-2.43,5.045-7.021,5.045c-3.872,0-5.74-1.842-5.74-3.817c0-0.962,0.479-2.322,2.056-3.259
		c1.654-1.014,3.898-1.146,5.1-1.229c-0.374-0.48-0.802-0.986-0.802-1.814c0-0.453,0.135-0.721,0.268-1.041
		c-0.294,0.027-0.587,0.054-0.855,0.054c-2.829,0-4.432-2.109-4.432-4.19c0-1.229,0.562-2.592,1.709-3.579
		c1.521-1.255,3.337-1.469,4.78-1.469h5.499l-1.708,0.962H58.263z M56.365,19.827C56.154,19.8,56.02,19.8,55.754,19.8
		c-0.241,0-1.685,0.055-2.806,0.43c-0.587,0.213-2.296,0.853-2.296,2.75c0,1.895,1.844,3.258,4.7,3.258
		c2.562,0,3.925-1.23,3.925-2.885C59.278,21.988,58.397,21.27,56.365,19.827 M57.141,14.754c0.614-0.614,0.667-1.468,0.667-1.948
		c0-1.924-1.148-4.913-3.363-4.913c-0.694,0-1.441,0.347-1.87,0.881c-0.453,0.561-0.587,1.281-0.587,1.976
		c0,1.789,1.042,4.753,3.338,4.753C55.992,15.502,56.713,15.182,57.141,14.754"/>
</g>
<g>
	<path fill="#FFC425" d="M41.454,19.4c-4.238,0-6.505-3.305-6.505-6.292c0-3.492,2.853-6.477,6.905-6.477
		c3.917,0,6.37,3.065,6.37,6.291C48.225,16.066,45.8,19.4,41.454,19.4 M44.784,17.241c0.642-0.854,0.803-1.919,0.803-2.96
		c0-2.345-1.12-6.823-4.427-6.823c-0.88,0-1.759,0.348-2.397,0.907c-1.04,0.932-1.229,2.105-1.229,3.252
		c0,2.639,1.308,6.982,4.533,6.982C43.108,18.6,44.173,18.094,44.784,17.241"/>
</g>
<g>
	<path fill="#ED174F" d="M27.006,19.4c-4.239,0-6.505-3.305-6.505-6.292c0-3.492,2.853-6.477,6.904-6.477
		c3.918,0,6.371,3.065,6.371,6.291C33.777,16.066,31.351,19.4,27.006,19.4 M30.338,17.241c0.64-0.854,0.8-1.919,0.8-2.96
		c0-2.345-1.119-6.823-4.425-6.823c-0.879,0-1.759,0.348-2.399,0.907c-1.04,0.932-1.226,2.105-1.226,3.252
		c0,2.639,1.306,6.982,4.532,6.982C28.659,18.6,29.726,18.094,30.338,17.241"/>
</g>
<g>
	<path fill="#0079C1" d="M18.465,18.98l-3.833,0.887c-1.556,0.24-2.948,0.455-4.421,0.455C2.813,20.322,0,14.881,0,10.62
		C0,5.421,3.992,0.598,10.827,0.598c1.447,0,2.841,0.214,4.1,0.562c2.01,0.563,2.948,1.26,3.538,1.662L16.24,4.939l-0.938,0.214
		l0.67-1.073c-0.91-0.883-2.573-2.518-5.735-2.518c-4.233,0-7.424,3.217-7.424,7.906c0,5.037,3.646,9.78,9.487,9.78
		c1.717,0,2.6-0.347,3.404-0.67v-4.312l-4.047,0.213l2.144-1.151h5.682l-0.695,0.669c-0.189,0.161-0.216,0.216-0.27,0.429
		c-0.028,0.242-0.053,1.02-0.053,1.287V18.98z"/>
</g>
<g>
	<path fill="#49A942" d="M66.734,18.21c-0.886-0.081-1.07-0.241-1.07-1.286v-0.296V1.754c0.005-0.058,0.009-0.116,0.015-0.172
		C65.784,0.644,66.054,0.483,66.885,0h-3.833l-2.011,0.965h2.049v0.013l-0.001-0.01v15.66v0.887c0,0.534-0.107,0.614-0.725,1.418
		h4.744l0.992-0.589C67.645,18.291,67.19,18.264,66.734,18.21"/>
</g>
<g>
	<path fill="#ED174F" d="M77.639,18.457c-0.292,0.16-0.585,0.349-0.877,0.48c-0.879,0.396-1.784,0.504-2.583,0.504
		c-0.851,0-2.182-0.053-3.54-1.037c-1.888-1.331-2.714-3.62-2.714-5.616c0-4.125,3.354-6.147,6.095-6.147
		c0.958,0,1.944,0.238,2.742,0.745c1.33,0.877,1.676,2.021,1.862,2.634l-6.254,2.528l-2.051,0.16c0.665,3.38,2.955,5.35,5.483,5.35
		c1.357,0,2.342-0.479,3.247-0.932L77.639,18.457z M75.138,10.524c0.505-0.187,0.771-0.347,0.771-0.718
		c0-1.064-1.196-2.289-2.634-2.289c-1.066,0-3.061,0.824-3.061,3.699c0,0.452,0.052,0.932,0.08,1.41L75.138,10.524z"/>
</g>
<g>
	<path fill="#77787B" d="M96.072,13.071h-6.131l-2.106,5.326h-1.166l6.069-15.153h0.671l5.945,15.153h-1.187L96.072,13.071z
		 M90.323,12.121h5.398l-2.055-5.439c-0.172-0.427-0.378-1.019-0.619-1.775c-0.186,0.661-0.389,1.259-0.608,1.796L90.323,12.121z"/>
	<path fill="#77787B" d="M105.275,6.96c0.812,0,1.515,0.148,2.106,0.444c0.592,0.296,1.121,0.802,1.589,1.518h0.062
		c-0.041-0.867-0.062-1.717-0.062-2.55V2.336h1.012v16.061h-0.671l-0.258-1.714h-0.083c-0.853,1.28-2.078,1.92-3.674,1.92
		c-1.549,0-2.732-0.481-3.551-1.444c-0.819-0.964-1.229-2.367-1.229-4.212c0-1.94,0.405-3.423,1.218-4.449
		C102.547,7.473,103.727,6.96,105.275,6.96z M105.275,7.889c-1.225,0-2.145,0.43-2.761,1.29c-0.616,0.86-0.924,2.109-0.924,3.747
		c0,3.18,1.235,4.769,3.706,4.769c1.266,0,2.194-0.368,2.786-1.104s0.888-1.95,0.888-3.644v-0.175c0-1.734-0.29-2.981-0.872-3.742
		C107.517,8.27,106.576,7.889,105.275,7.889z"/>
	<path fill="#77787B" d="M126.034,18.397h-0.867l-3.313-11.643c-0.275-0.957-0.481-1.741-0.619-2.354
		c-0.11,0.599-0.267,1.287-0.47,2.064c-0.203,0.777-1.312,4.755-3.329,11.932h-0.888l-4.149-15.091h1.104l2.643,9.723
		c0.104,0.393,0.199,0.755,0.289,1.089c0.089,0.334,0.17,0.646,0.242,0.939c0.072,0.292,0.138,0.574,0.196,0.846
		c0.059,0.272,0.112,0.546,0.16,0.821c0.165-0.937,0.516-2.356,1.053-4.263l2.58-9.156h1.167l3.024,10.508
		c0.351,1.211,0.602,2.188,0.753,2.932c0.09-0.496,0.205-1.022,0.346-1.579c0.142-0.558,1.203-4.511,3.185-11.86h1.063
		L126.034,18.397z"/>
	<path fill="#77787B" d="M141.159,12.772c0,1.831-0.444,3.26-1.332,4.289c-0.888,1.029-2.112,1.543-3.674,1.543
		c-0.984,0-1.852-0.237-2.602-0.712s-1.325-1.156-1.724-2.044c-0.399-0.888-0.599-1.913-0.599-3.076
		c0-1.831,0.443-3.257,1.331-4.278c0.888-1.022,2.106-1.533,3.654-1.533c1.541,0,2.751,0.518,3.628,1.554
		C140.72,9.55,141.159,10.969,141.159,12.772z M132.302,12.772c0,1.542,0.339,2.744,1.017,3.608
		c0.678,0.863,1.636,1.295,2.875,1.295c1.238,0,2.196-0.432,2.875-1.295c0.678-0.864,1.017-2.066,1.017-3.608
		c0-1.548-0.343-2.749-1.027-3.603c-0.685-0.853-1.646-1.28-2.885-1.28c-1.239,0-2.193,0.425-2.864,1.275
		C132.638,10.014,132.302,11.217,132.302,12.772z"/>
	<path fill="#77787B" d="M148.519,6.96c0.475,0,0.983,0.048,1.527,0.145l-0.196,0.981c-0.468-0.117-0.953-0.176-1.455-0.176
		c-0.957,0-1.741,0.406-2.354,1.218s-0.919,1.837-0.919,3.076v6.193h-1.021V7.177h0.867l0.103,2.023h0.072
		c0.461-0.826,0.953-1.406,1.477-1.739C147.142,7.127,147.776,6.96,148.519,6.96z"/>
	<path fill="#77787B" d="M156.059,6.96c0.812,0,1.515,0.148,2.106,0.444c0.592,0.296,1.121,0.802,1.589,1.518h0.062
		c-0.041-0.867-0.062-1.717-0.062-2.55V2.336h1.012v16.061h-0.671l-0.258-1.714h-0.083c-0.853,1.28-2.078,1.92-3.674,1.92
		c-1.549,0-2.732-0.481-3.551-1.444c-0.819-0.964-1.229-2.367-1.229-4.212c0-1.94,0.405-3.423,1.218-4.449
		C153.331,7.473,154.511,6.96,156.059,6.96z M156.059,7.889c-1.225,0-2.145,0.43-2.761,1.29c-0.616,0.86-0.924,2.109-0.924,3.747
		c0,3.18,1.235,4.769,3.706,4.769c1.266,0,2.194-0.368,2.786-1.104s0.888-1.95,0.888-3.644v-0.175c0-1.734-0.29-2.981-0.872-3.742
		C158.302,8.27,157.36,7.889,156.059,7.889z"/>
	<path fill="#77787B" d="M171.262,15.476c0,1.005-0.382,1.777-1.146,2.317c-0.764,0.54-1.848,0.81-3.251,0.81
		c-1.5,0-2.69-0.23-3.571-0.691v-1.104c1.128,0.564,2.318,0.847,3.571,0.847c1.107,0,1.949-0.184,2.523-0.553
		c0.575-0.367,0.862-0.857,0.862-1.471c0-0.563-0.229-1.039-0.687-1.424c-0.458-0.386-1.209-0.764-2.255-1.136
		c-1.122-0.406-1.91-0.755-2.364-1.048s-0.797-0.623-1.027-0.991s-0.346-0.817-0.346-1.347c0-0.839,0.353-1.503,1.059-1.992
		c0.705-0.488,1.69-0.733,2.957-0.733c1.211,0,2.36,0.227,3.447,0.682l-0.382,0.929c-1.101-0.454-2.123-0.681-3.065-0.681
		c-0.915,0-1.642,0.151-2.178,0.454c-0.537,0.303-0.806,0.723-0.806,1.259c0,0.585,0.208,1.053,0.625,1.404
		c0.416,0.351,1.229,0.743,2.44,1.177c1.012,0.365,1.748,0.693,2.209,0.986s0.807,0.625,1.038,0.996
		C171.147,14.537,171.262,14.973,171.262,15.476z"/>
</g>
</svg>
